<svg xmlns="http://www.w3.org/2000/svg" width="2304" height="314"><path fill-rule="evenodd" clip-rule="evenodd" fill="#FDF9F0" d="M2304 0v310.9c-.2-.1-.3-.2-.4-.2-.9-.3-3-1.8-5.1-3.4l-.5-.4c-2.4-1.9-4.7-3.7-4.7-3.7l-3.8-1.4s-4.1-2.2-8.4-4.5l-.7-.4c-.1-.1-.2-.1-.3-.2l-.7-.4-.7-.4c-3.5-1.8-6.6-3.4-7.4-3.6h-.2c-.2-.1-.3-.2-.5-.3l-.1-.1c-1.3-.9-2.6-3.2-13.1-9-12.6-6.9-10-8.4-12-9-1.1-.3-4.6-2.1-8.1-3.8l-.7-.3c-2.3-1.1-4.5-2.1-6-2.5-1.9-.6-5.7-3.3-9.4-6.2l-.8-.6c-3.6-2.9-7-5.9-8.6-7.3-1.1-1-1.7-1.9-2.4-2.8l-.2-.3c-1.3-1.5-2.9-2.9-7.7-4.3-7.7-2.3-3.3-3.1-3.3-3.1l-5.3-10-3.3-3.1s-8.4-6.8-11.7-9.9c-3.3-3.1-4.6-5.6-4.6-5.6s0-.1.1-.3l.1-.2v-.1l.1-.3c.6-2.1 1.7-6.9.2-7.3-1.9-.6-5.9-8.1-7.3-10.6-1.3-2.5-3.4-9.4-5.3-10-1.9-.6-4-7.5-5.3-10-1.3-2.5-1.5-8.9-1.5-8.9s-1.3-2.5-4-7.5-1.3-2.5-.7-4.4c.6-1.9-2.1-6.9-8-15.1-3.2-4.3-3.3-4.8-3.5-5.1v-.1c-.1-.2-.4-.6-2.4-3-4.6-5.6-4-7.5-5.9-8.1-1.9-.6-.2-6.4-1.5-8.9s-2.1-6.9-2.1-6.9l-1.5-8.9-7.7-2.3s-4.4.7-8.3-.4c-3.8-1.2-2.5 1.3-11.4 2.8l-4.6-5.6-3.3-3.1-5 2.7s-.2.1-.3.1l-.3.1c-1.2.5-4.3 1.5-10.8 2.6-4.4.7-5 1.1-5.4 1.5l-.1.1c-.4.4-.6.9-4 1.9-6.9 2.1-4.4.7-5 2.7-.6 1.9-6.4.2-12 4.7-5.6 4.6-8.9 1.5-8.9 1.5s-6.4.2-8.3-.4c-1.9-.6-4.4.8-7.5 4-3.1 3.3-8.9 1.5-12 4.7-3.1 3.3-9.6-2.9-16-2.8-6.4.2-15.4-4.7-15.4-4.7l-5.8-1.8c-19.8-4-73.6 6.9-73.6 6.9s-95.4 23.3-97.3 22.8c-1.9-.5-15.4 2.2-15.4 2.2l4.4-7.6s6.2-6.5 6.8-8.4c.5-1.5.9-3 1.1-3.6l.1-.2v-.1l-24.4-9.6-9.6-2.9-5.2-3.7-7.1-4.3-4-7.5-37-30.2-4.4.7-11.5-3.5c-5.5-1.7-4.5.5-4.4.7l-5.8-1.8c-3.8-1.2-12.1-1.6-14-2.2-.8-.3-5.1-.7-9.5-1.2l-.8-.1c-5.5-.6-11.2-1.1-11.2-1.1h-5.2c-11.1 0-36.6-.1-39.6-1.1-3.8-1.2-12.7.3-14.6-.3-1.9-.6-65.6-5.4-67.5-5.9s-10.2-1-14.6-.3-9.6-2.9-10.2-1c-.3 1-2.5.3-4.8-.7l-.5-.2c-.1 0-.2-.1-.2-.1l-.5-.2c-1.5-.7-3-1.4-3.7-1.7l-30.8-9.4c-.7 0-1.8 0-2.9.1h-.8c-2.1.1-4.1.2-4.1.2s-6 1.8-6 3.8-4 0-4 2 2 2 0 4c-1.9 1.9-2 .4-2 .2l-8 5.8-4 .2-4 .3c-2 .2-4 3.6-4 3.6l-10 .1s-2 .2-4 .2c-.9 0-1 .8-1 1.6v.3c0 .8-.1 1.6-1 1.6-2 0-4 4-4 4l-4 2c-4 2-2.6 2.6-4 4-4 4-6 8-6 8l-4 4-2 .2-4 5.8h-.1l-.3-.1c-1.8-.4-9.7-2.2-9.7-3.9h-6l-2 4.3s-2-3.5-4 .1-2 5.6-4 5.6-4 .3-4 .3l-10 .2v3.5c-5.8 1.9-7.9 2-8 2h.2c.4.1 1.1.4-2.2 2-3.8 1.9-4 .4-4 .2l-4 1s0 .2-2 .2-6 .3-6 .3l-6 .2c-4 .3-6 2.1-6 4.1 0 1 .5 1 .7 1h.1c.2 0 .1.1-.5.7l-.3.3c-2 2-4 2-4 4s-2 2-2 4 0 0-2 2c-.9.9-1.4.6-1.9.2l-.2-.2c-.5-.4-1-.8-1.9.1-1.9 1.7-3.7 3.5-3.9 3.7v.2l-2 5.9-8 4-8 8-2 4-6 6c0 4-6 12.1-6 10 0-2 2-4 0-4s-8-4-8-4l-1.1.5c-3.6 1.8-7.1 3.5-9 3.5h-12.1l-6-2H1175c-.8 0-2.5.3-4.3.6l-.5.1c-2.6.4-5.3.5-5.3-.6 0-.9-1.3-1-3.2-1h-.5c-2 0-4.4 0-6.4-1-4-2-12.1-4-14.1-4-1 0-16.4-3.4-32.2-6.8l-1.9-.4c-15.8-3.4-31.2-6.8-32.2-6.8-2 0-10-4-14.1-4-4 0-43.1-12-43.1-12s-19.2-4-21.3-4c-2 0-10.1-2-14.1-2h-6s2-2-4-2H960l-4-2-44.2 18.1-6 6-8 2-6 2h-10l-26.1 2v4c0 2 4 10 4 10l2 8.6s-3.5-1.9-7.1-3.7l-.6-.3c-2.8-1.4-5.5-2.6-6.4-2.6-1 0-20.9-11.6-41.4-23.6l-3.8-2.3c-14.5-8.5-28.7-16.9-36-21.3l-1.2-.7c-2.1-1.2-3.4-2-3.8-2.3l-.1-.1S713.1 74.8 693 72.8h-6s-10 2-16.1 0c-6-2-14.1 2-16.1-2-.9-1.8-2.7-2.8-4.5-3.7l-1.1-.5c-1.8-.9-3.6-1.9-4.5-3.7-2-4-4-6-6-6-1.9 0-7.2-1.7-8-2h-.1s-4 2-8-4-10-6-10-8c0-.4.1-.6.1-.8V42c.2-.4.4-.3-1.2-1.2l-.3-.2c-.6-.4-1.5-1-2.8-1.8-6-4 0-2-8-6-7.6-3.8-9.8-5.8-10-6l-4-4-4 2-6 4c-4-2-5.5-3.5-6.5-4.5l-.2-.2c-.9-.9-1.4-1.3-3.3-1.3-3.7 0-7.5-1.7-8-2h-8.1l-4 8s-2 4-4 6-2 8-4 8c-.9 0-1.4.4-2.3 1.3l-.3.3c-1 1-2.5 2.5-5.4 4.4-2.5 1.7-2.9 1.9-3.1 2.1l-.1.1-.4.4-.1.1c-.6.5-1.7 1.4-4.1 3.2-8 6-12.1 10-12.1 12.1 0 .6.2.8.3 1l.1.1c.2.2.2.3-1.6 2.2l-.8.8-.5.5-.8.8-.7.7-1.2 1.2-1.5 1.5-.4.4-.9.9-.1.1s-.5 1.5-1.2 3.2-1.8 3.8-2.8 4.8c-2 2-6 8-8 8s-6 6-8 8l-.6.6c-2.4 2.4-7.6 7.4-9.4 7.4-1.9 0-2 7.4-2 8-.1.2-.7.7-1.7 1.4s-2.4 1.6-4.3 2.6c-4 2-14.1 6-14.1 6l-4 2-8 8c.1 0 .2.1.4.3l.1.1c.1.1.2.1.2.2l.1.1c.5.6.3 1.4-4.8 1.4-5 0-6.9.8-8.6 1.9l-.3.2c-.9.6-1.8 1.3-3.2 2-4 2-18.1 8-22.1 8-1.5 0-3.9.3-6.4.6l-.8.1c-3.8.6-7.7 1.2-8.9 1.2-.3 0-.5 0-.6.1h-.1c-.1.1-.2.1-.3.2l-.1.1c-.9.7-2.5 2.5-13 4.7-14.1 3-14.1 5-16.1 5-.9 0-4.8.7-8.9 1.5l-.8.1-10.4 2-4 .2s-10 4.2-12.1 4.2c-1 0-6.5 1-12.1 2l-.9.2c-5.2.9-10.2 1.8-11.1 1.8-2 0-22.1 6-22.1 6s6 2-10 6c-10.1 2.5-13.1 5-15.9 6.6l-.3.2c-1.6.8-3.1 1.3-6 1.3-5.4 0-9 .1-12.7.2H221c-2.4 0-7.7.6-13.2 1.3l-1.2.2c-.3 0-.6.1-.8.1l-.8.1c-7.3 1-14 2.1-14 2.1s-12.5 1.1-24.8 2.1l-2.2.6c-10.8.9-21.1 1.8-22 1.8h-.3c-2.3 0-15.1.1-28.3.1h-1.7c-13.5.1-27.1.1-30 .1-2.7 0-18.4.8-34.9 1.6l-2.2.1c-.4 0-.7 0-1.1.1l-2.2.1c-18.3.9-35.9 1.9-35.9 1.9l-5.4.1V0h2304z"/></svg>